<svg xmlns="http://www.w3.org/2000/svg" xmlns:xlink="http://www.w3.org/1999/xlink" fill="none" version="1.1" width="16.75" height="16" viewBox="0 0 16.75 16"><defs><clipPath id="master_svg0_1_089"><rect x="0" y="0" width="16.75" height="16" rx="0"/></clipPath></defs><g clip-path="url(#master_svg0_1_089)"><g transform="matrix(1,0,0,-1,0,32.69061279296875)"><g><path d="M8.656250381469727,31.784406396484375Q8.375000381469727,32.31560639648438,7.750000381469727,32.34690639648437Q7.156250381469727,32.31560639648438,6.843750381469727,31.784406396484375L4.843750381469727,27.659406396484375L0.3437503814697266,26.971906396484375Q-0.24999961853027344,26.878106396484377,-0.4374996185302734,26.315616396484373Q-0.6249996185302734,25.721866396484373,-0.18749961853027342,25.284366396484373L3.0625003814697265,22.065616396484373L2.2812503814697265,17.503116396484376Q2.2187503814697265,16.909369396484376,2.6875003814697265,16.534369396484376Q3.1875003814697265,16.190619396484376,3.750000381469727,16.471869396484376L7.750000381469727,18.596866396484376L11.781250381469727,16.471869396484376Q12.312450381469727,16.190619396484376,12.812450381469727,16.534369396484376Q13.312450381469727,16.909369396484376,13.218750381469727,17.503116396484376L12.468750381469727,22.065616396484373L15.718750381469725,25.284366396484373Q16.124950381469727,25.721866396484373,15.968750381469725,26.315616396484373Q15.749950381469727,26.878106396484377,15.156250381469727,26.971906396484375L10.656250381469727,27.659406396484375L8.656250381469727,31.784406396484375Z" fill="#374151" fill-opacity="1" style="mix-blend-mode:passthrough"/></g></g></g></svg>